<?xml version="1.0" encoding="iso-8859-1"?>
<!-- Generator: Adobe Illustrator 19.2.1, SVG Export Plug-In . SVG Version: 6.00 Build 0)  -->
<svg version="1.1" xmlns="http://www.w3.org/2000/svg" xmlns:xlink="http://www.w3.org/1999/xlink" x="0px" y="0px"
	 viewBox="0 0 303.31 303.31" style="enable-background:new 0 0 303.31 303.31;" xml:space="preserve">
<g id="bg">
	<path style="fill:#FFD900;" d="M258.572,99H44.738C39.216,99,35,103.455,35,108.978v65.855C35,180.356,39.216,185,44.738,185H209
		v17.766L222.203,185h36.368c5.523,0,10.428-4.644,10.428-10.167v-65.855C269,103.455,264.095,99,258.572,99z"/>
</g>
<g id="logo">
	<g>
		<path style="fill:#002F47;" d="M65.932,113.042l-17.094,40.941h7.754l3.348-8.165H78.15l3.348,8.165h7.753l-17.093-40.941H65.932z
			 M62.232,139.768l6.814-16.682l6.814,16.682H62.232z"/>
		<path style="fill:#002F47;" d="M109.051,113.042H93.427v40.941h7.342v-14.332h8.282c6.814,0,13.334-5.463,13.334-13.275
			C122.386,118.094,115.571,113.042,109.051,113.042z M108.699,133.013h-7.93V119.68h7.93c2.937,0,6.402,2.056,6.402,6.696
			C115.101,130.899,111.636,133.013,108.699,133.013z"/>
		<path style="fill:#002F47;" d="M134.373,139.651h8.282c6.814,0,13.334-5.463,13.334-13.275c0-8.282-6.814-13.334-13.334-13.334
			H127.03v40.941h7.342V139.651z M134.373,119.68h7.93c2.937,0,6.402,2.056,6.402,6.696c0,4.523-3.465,6.638-6.402,6.638h-7.93
			V119.68z"/>
		<path style="fill:#002F47;" d="M193.481,113.042h-7.342v24.494c0,7.283-3.701,10.455-9.222,10.455
			c-5.581,0-9.281-3.172-9.281-10.455v-24.494h-7.342V138.3c0,10.925,7.342,16.329,16.623,16.329
			c9.222,0,16.564-5.404,16.564-16.329V113.042z"/>
		<rect x="199.999" y="124.379" style="fill:#002F47;" width="7.048" height="29.604"/>
		<path style="fill:#002F47;" d="M203.523,112.572c-2.291,0-4.229,1.821-4.229,4.17c0,2.35,1.938,4.17,4.229,4.17
			c2.232,0,4.171-1.821,4.171-4.17C207.694,114.393,205.755,112.572,203.523,112.572z"/>
		<path style="fill:#002F47;" d="M233.615,154.806c12.042,0,21.675-9.163,21.675-21.205c0-12.041-9.633-21.263-21.675-21.263
			c-11.983,0-21.616,9.222-21.616,21.263C211.999,145.642,221.632,154.806,233.615,154.806z M233.615,118.975
			c8.165,0,14.391,6.461,14.391,14.626c0,8.223-6.227,14.568-14.391,14.568s-14.391-6.285-14.391-14.568
			C219.224,125.377,225.45,118.975,233.615,118.975z"/>
	</g>
	<g>
		<path style="fill:#002F47;" d="M49.488,167.894c0.448,0.883,1.275,1.485,2.451,1.485c1.359,0,1.653-0.799,1.653-1.275
			c0-0.882-0.799-1.219-1.989-1.667c-1.569-0.588-2.802-1.232-2.802-2.955c0-1.611,1.373-2.634,3.026-2.634
			c1.485,0,2.437,0.687,3.012,1.583l-1.247,0.854c-0.351-0.546-0.896-0.868-1.737-0.868c-0.771,0-1.331,0.434-1.331,1.036
			c0,0.896,0.784,1.051,2.213,1.639c1.779,0.715,2.605,1.472,2.605,2.97c0,1.653-1.121,2.886-3.417,2.886
			c-1.863,0-3.152-0.883-3.754-2.228L49.488,167.894z"/>
		<path style="fill:#002F47;" d="M56.015,161.016h1.709l1.975,6.556l2.017-6.556h1.316l2.017,6.556l1.989-6.556h1.695l-2.914,9.764
			h-1.387l-2.059-6.556l-2.073,6.556h-1.373L56.015,161.016z"/>
		<path style="fill:#002F47;" d="M70.167,161.016h1.751v9.764h-1.751V161.016z"/>
		<path style="fill:#002F47;" d="M74.795,167.894c0.448,0.883,1.275,1.485,2.451,1.485c1.359,0,1.653-0.799,1.653-1.275
			c0-0.882-0.799-1.219-1.989-1.667c-1.569-0.588-2.802-1.232-2.802-2.955c0-1.611,1.373-2.634,3.026-2.634
			c1.485,0,2.437,0.687,3.012,1.583l-1.247,0.854c-0.351-0.546-0.896-0.868-1.737-0.868c-0.771,0-1.331,0.434-1.331,1.036
			c0,0.896,0.784,1.051,2.213,1.639c1.779,0.715,2.605,1.472,2.605,2.97c0,1.653-1.121,2.886-3.417,2.886
			c-1.863,0-3.152-0.883-3.754-2.228L74.795,167.894z"/>
		<path style="fill:#002F47;" d="M83.054,167.894c0.448,0.883,1.275,1.485,2.451,1.485c1.359,0,1.653-0.799,1.653-1.275
			c0-0.882-0.798-1.219-1.989-1.667c-1.569-0.588-2.802-1.232-2.802-2.955c0-1.611,1.373-2.634,3.026-2.634
			c1.485,0,2.438,0.687,3.012,1.583l-1.247,0.854c-0.35-0.546-0.896-0.868-1.737-0.868c-0.771,0-1.331,0.434-1.331,1.036
			c0,0.896,0.784,1.051,2.213,1.639c1.779,0.715,2.605,1.472,2.605,2.97c0,1.653-1.121,2.886-3.417,2.886
			c-1.863,0-3.152-0.883-3.754-2.228L83.054,167.894z"/>
		<path style="fill:#002F47;" d="M101.2,160.848c1.555,0,2.914,0.673,3.866,1.751l-1.191,1.022c-0.658-0.742-1.597-1.19-2.675-1.19
			c-1.961,0-3.446,1.485-3.446,3.474c0,1.989,1.485,3.46,3.446,3.46c1.079,0,2.045-0.448,2.704-1.219l1.176,1.022
			c-0.938,1.107-2.325,1.779-3.88,1.779c-2.872,0-5.183-2.129-5.183-5.043C96.017,162.991,98.329,160.848,101.2,160.848z"/>
		<path style="fill:#002F47;" d="M111.034,160.848c2.871,0,5.168,2.199,5.168,5.071c0,2.871-2.297,5.057-5.168,5.057
			c-2.858,0-5.155-2.186-5.155-5.057C105.878,163.047,108.176,160.848,111.034,160.848z M111.034,169.393
			c1.947,0,3.432-1.513,3.432-3.474c0-1.947-1.485-3.488-3.432-3.488c-1.947,0-3.432,1.527-3.432,3.488
			C107.602,167.894,109.086,169.393,111.034,169.393z"/>
		<path style="fill:#002F47;" d="M118.016,161.016h1.541l5.168,6.78v-6.78h1.695v9.764h-1.429l-5.281-6.905v6.905h-1.695V161.016z"
			/>
		<path style="fill:#002F47;" d="M130.46,162.599h-2.647v-1.583h7.046v1.583h-2.647v8.181h-1.751V162.599z"/>
		<path style="fill:#002F47;" d="M138.61,161.016h1.485l4.076,9.764h-1.849l-0.798-1.947h-4.342l-0.798,1.947h-1.849L138.61,161.016
			z M140.977,167.39l-1.625-3.979l-1.625,3.979H140.977z"/>
		<path style="fill:#002F47;" d="M145.619,161.016h1.751v9.764h-1.751V161.016z"/>
		<path style="fill:#002F47;" d="M149.765,161.016h1.541l5.169,6.78v-6.78h1.695v9.764h-1.43l-5.281-6.905v6.905h-1.695V161.016z"/>
		<path style="fill:#002F47;" d="M160.55,161.016h6.22v1.583h-4.469v2.325h4.188v1.583h-4.188v2.689h4.567v1.583h-6.318V161.016z"/>
		<path style="fill:#002F47;" d="M168.871,161.016h3.797c1.736,0,3.165,1.331,3.165,3.096c0,1.289-0.729,2.34-1.778,2.773
			l2.367,3.895h-1.976l-2.087-3.474h-0.028h-1.709v3.474h-1.751V161.016z M172.485,165.736c0.953,0,1.611-0.658,1.611-1.597
			c0-0.896-0.631-1.541-1.471-1.541h-2.004v3.138H172.485z"/>
		<path style="fill:#002F47;" d="M183.837,161.016h3.727c1.555,0,3.18,1.205,3.18,3.18c0,1.863-1.555,3.166-3.18,3.166h-1.976v3.418
			h-1.751V161.016z M187.479,165.778c0.7,0,1.526-0.504,1.526-1.583c0-1.106-0.826-1.597-1.526-1.597h-1.892v3.18H187.479z"/>
		<path style="fill:#002F47;" d="M192.282,161.016h1.751v8.181h3.881v1.583h-5.632V161.016z"/>
		<path style="fill:#002F47;" d="M203.084,161.016h1.484l4.076,9.764h-1.849l-0.799-1.947h-4.342l-0.799,1.947h-1.849
			L203.084,161.016z M205.451,167.39l-1.625-3.979l-1.625,3.979H205.451z"/>
		<path style="fill:#002F47;" d="M210.98,162.599h-2.647v-1.583h7.046v1.583h-2.647v8.181h-1.751V162.599z"/>
		<path style="fill:#002F47;" d="M216.765,161.016h5.912v1.583h-4.161v2.451h3.797v1.583h-3.797v4.146h-1.751V161.016z"/>
		<path style="fill:#002F47;" d="M228.938,160.848c2.872,0,5.169,2.199,5.169,5.071c0,2.871-2.297,5.057-5.169,5.057
			c-2.857,0-5.154-2.186-5.154-5.057C223.783,163.047,226.08,160.848,228.938,160.848z M228.938,169.393
			c1.947,0,3.432-1.513,3.432-3.474c0-1.947-1.484-3.488-3.432-3.488s-3.432,1.527-3.432,3.488
			C225.506,167.894,226.99,169.393,228.938,169.393z"/>
		<path style="fill:#002F47;" d="M235.92,161.016h3.797c1.736,0,3.165,1.331,3.165,3.096c0,1.289-0.729,2.34-1.778,2.773
			l2.367,3.895h-1.976l-2.087-3.474h-0.028h-1.709v3.474h-1.751V161.016z M239.534,165.736c0.953,0,1.611-0.658,1.611-1.597
			c0-0.896-0.631-1.541-1.471-1.541h-2.004v3.138H239.534z"/>
		<path style="fill:#002F47;" d="M244.979,161.016h1.499l3.502,5.478l3.488-5.478h1.484v9.764H253.3v-6.611l-3.32,5.154
			l-3.348-5.141v6.598h-1.653V161.016z"/>
	</g>
</g>
<g id="guides">
</g>
</svg>
